# xmcd CD database file generated by LOLA_Freedb v0.9beta0
# 
# Track frame offsets:
#      150
#      15522
#      31650
#      53480
#      60014
#      61973
#      69014
#      84890
#      102524
#      110771
#      117830
#      140192
#      146645
#      157670
#      176513
# 
# Disc length: 2854 seconds
# 
# Revision: 0 
# Processed by: cddbd v1.5.2PL0 Copyright (c) Steve Scherf et al.
# Submitted via: LOLA_Freedb v0.9beta0
# 
DISCID=b40b240f
DTITLE=OFFICIAL - HOMECOMING MIXTAPE
DYEAR=2010
DGENRE=
TTITLE0=OFFICIAL - TAKE OFF
TTITLE1=OFFICIAL FEAT SMURF - WIGGLE
TTITLE2=OFFICIAL FEAT MISS JONES and J.B. - BEAT IT DOWN
TTITLE3=OFFICIAL - FOOLISH
TTITLE4=OFFICIAL - *TEXAS SHOUT OUT*
TTITLE5=OFFICIAL - ROGER DAT
TTITLE6=OFFICIAL - WATCH OUT
TTITLE7=OFFICIAL FEAT J.B. - DOWN ASS CHICK
TTITLE8=OFFICIAL - *HOMECOMING SPEECH*
TTITLE9=DORROUGH FEAT LIL WAYNE and OFFICIAL - ICECREAM PAINTJOB (REMIX)
TTITLE10=OFFICIAL - DREAMING
TTITLE11=OFFICIAL - LIVING LEGEND
TTITLE12=OFFICIAL - HEISMAN
TTITLE13=TWAN T FEAT OFFICIAL and D BOY - BREAD
TTITLE14=SMURF FEAT OFFICIAL - TAKE OVER
EXTD=GOD BLESS YOU ALL
EXTT0=
EXTT1=
EXTT2=
EXTT3=
EXTT4=
EXTT5=
EXTT6=
EXTT7=
EXTT8=
EXTT9=
EXTT10=
EXTT11=
EXTT12=
EXTT13=
EXTT14=*BONUS TRACK*
PLAYORDER=
